<svg width="200" height="200" viewBox="0 0 200 200" xmlns="http://www.w3.org/2000/svg"><path d="m144.45 107.94c0 13.86-28.29 25.1-63.22 25.1-34.92.0-63.23-11.24-63.23-25.1C18 94.07 19.47 24 81.23 24c61.77.0 63.22 70.06 63.22 83.94" fill="#fcc21b"/><path d="m65.55 69.93c0 5.41-3.62 9.79-8.1 9.79-4.48.0-8.12-4.38-8.12-9.79.0-5.42 3.64-9.8 8.12-9.8s8.1 4.38 8.1 9.8m50.965 6.888a2.634 2.634.0 01-2.6 1.93 2.543 2.543.0 01-.632-.096c-8.264-2.28-18.77-.59-18.868-.575-1.193.2-2.331-.436-2.828-1.514a2.628 2.628.0 01.72-3.123c8.1-6.697 20.39-10.427 20.904-10.575a2.633 2.633.0 013.282 1.769 2.652 2.652.0 01-1.77 3.281c-.067.02-5.106 1.542-10.598 4.284 3.284-.022 7.083.425 10.565 1.375a2.633 2.633.0 011.825 3.244zM81.23 108.05c-9.7.0-19.4-3.69-26.79-11.08a3 3 0 010-4.24 3 3 0 014.24.0c12.43 12.43 32.66 12.43 45.09.0a3 3 0 014.24.0 3 3 0 010 4.24c-7.38 7.39-17.08 11.08-26.78 11.08z" fill="#2f2f2f"/><path d="m146.78271 129.29239a81.248082 81.259806.0 10-17.46209 17.47711h-.0125c.37499.50006.77497.97512 1.22497 1.43768l48.12386 48.1308a12.502237 12.504041.0 0017.68708-17.67713l-48.12386-48.1308a12.587203 12.589019.0 00-1.43747-1.25016zm3.22493-48.055792a68.748385 68.758306.0 11-137.496771.0 68.748385 68.758306.0 01137.496771.0z" style="stroke-width:12.5006"/></svg>